<svg preserveAspectRatio="none" width="100%" height="100%" overflow="visible" style="display: block;" viewBox="0 0 63 58.5" fill="none" xmlns="http://www.w3.org/2000/svg">
<path id="Icon" d="M12 57C8.7 57 5.875 55.825 3.525 53.475C1.175 51.125 0 48.3 0 45C0 41.7 1.175 38.875 3.525 36.525C5.875 34.175 8.7 33 12 33C14.4 33 16.6125 33.65 18.6375 34.95C20.6625 36.25 22.125 38.025 23.025 40.275L23.775 42H25.575C27.675 42 29.4375 42.725 30.8625 44.175C32.2875 45.625 33 47.4 33 49.5C33 51.6 32.275 53.375 30.825 54.825C29.375 56.275 27.6 57 25.5 57H12V57M38.925 48.6C38.725 45.45 37.5875 42.725 35.5125 40.425C33.4375 38.125 30.825 36.7 27.675 36.15C26.125 33.45 24.0375 31.3125 21.4125 29.7375C18.7875 28.1625 15.9 27.25 12.75 27C14.05 23.35 16.275 20.4375 19.425 18.2625C22.575 16.0875 26.1 15 30 15C35 15 39.25 16.75 42.75 20.25C46.25 23.75 48 28 48 33C48 36.25 47.2 39.2625 45.6 42.0375C44 44.8125 41.775 47 38.925 48.6V48.6M27 12V0H33V12H27V12M46.95 20.25L42.75 16.05L51.15 7.5L55.425 11.775L46.95 20.25V20.25M51 36V30H63V36H51V36M51.15 58.5L42.75 49.95L46.95 45.75L55.5 54.15L51.15 58.5V58.5M13.05 20.25L4.575 11.775L8.85 7.5L17.25 16.05L13.05 20.25V20.25" fill="var(--fill-0, white)"/>
</svg>
