<svg preserveAspectRatio="none" width="100%" height="100%" overflow="visible" style="display: block;" viewBox="0 0 15.6445 12.4365" fill="none" xmlns="http://www.w3.org/2000/svg">
<path id="Icon" d="M2.98828 5.29102C3.00586 1.76367 4.24219 0 6.69727 0C8.07422 0 9.17871 0.539062 10.0107 1.61719C10.6025 2.41406 10.9805 3.375 11.1445 4.5C11.6836 3.52734 12.4277 3.04102 13.377 3.04102C14.0098 3.04102 14.5547 3.26953 15.0117 3.72656C15.4336 4.16016 15.6445 4.6875 15.6445 5.30859C15.6445 6.36328 15.1348 7.0957 14.1152 7.50586C15.1113 7.93945 15.6094 8.59277 15.6094 9.46582C15.6094 10.0928 15.3691 10.6641 14.8887 11.1797C14.1562 12.0176 13.1484 12.4365 11.8652 12.4365C9.68555 12.4365 8.20898 11.3027 7.43555 9.03516C6.26953 10.5938 4.83398 11.373 3.12891 11.373C2.29688 11.373 1.59082 11.127 1.01074 10.6348C0.336914 10.0547 0 9.32812 0 8.45508C0 7.38281 0.383789 6.54492 1.15137 5.94141C1.62012 5.56055 2.23242 5.34375 2.98828 5.29102V5.29102" fill="#1A1C1F"/>
</svg>
